<svg xmlns="http://www.w3.org/2000/svg" width="169.779" height="39.948" viewBox="0 0 169.779 39.948">
  <g id="Group_5" data-name="Group 5" transform="translate(-20.01 -20.01)">
    <path id="Path_6" data-name="Path 6" d="M239.689,112.086a2.835,2.835,0,0,0,2.1.838,3,3,0,0,0,2.136-.838,2.959,2.959,0,0,0,.834-2.177,2.908,2.908,0,0,0-.834-2.177,3.1,3.1,0,0,0-4.238,0,2.96,2.96,0,0,0-.834,2.177,2.907,2.907,0,0,0,.834,2.177m2.6-7.872a4.767,4.767,0,0,1,3.671,1.641,5.828,5.828,0,0,1,1.535,4.053,5.679,5.679,0,0,1-1.535,4.053,4.766,4.766,0,0,1-3.671,1.642,4.188,4.188,0,0,1-3.471-1.574V115.3h-2.737V100.195h2.737v5.594a4.1,4.1,0,0,1,3.471-1.574" transform="translate(-162.716 -69.057)" fill="#2b368c"/>
    <path id="Path_7" data-name="Path 7" d="M280.269,117.736h5.5a2.622,2.622,0,0,0-.978-1.64,2.736,2.736,0,0,0-1.686-.536,3.053,3.053,0,0,0-1.855.569,2.634,2.634,0,0,0-.978,1.607m.034,2.142a2.777,2.777,0,0,0,3.035,2.042,2.923,2.923,0,0,0,2.428-1.071l2.225,1.306a5.356,5.356,0,0,1-4.687,2.309,5.8,5.8,0,0,1-4.282-1.606,5.528,5.528,0,0,1-1.619-4.084,5.691,5.691,0,0,1,1.585-4.084,5.561,5.561,0,0,1,4.08-1.64,5.066,5.066,0,0,1,3.912,1.64,5.786,5.786,0,0,1,1.551,4.05,6.785,6.785,0,0,1-.1,1.138Z" transform="translate(-191.193 -77.917)" fill="#2b368c"/>
    <path id="Path_8" data-name="Path 8" d="M323.1,110.371h-2.434V114.8a1.219,1.219,0,0,0,.271.826,1.485,1.485,0,0,0,.811.3,9.181,9.181,0,0,0,1.352,0V118.4c-1.927.2-3.279.033-4.057-.529a3.533,3.533,0,0,1-1.183-3.041V110.4h-1.893V107.76h1.893v-2.148l2.772-.826v2.974h2.434v2.611Z" transform="translate(-217.771 -72.221)" fill="#2b368c"/>
    <path id="Path_9" data-name="Path 9" d="M349.725,110.371h-2.434V114.8a1.219,1.219,0,0,0,.271.826,1.485,1.485,0,0,0,.811.3,9.186,9.186,0,0,0,1.353,0V118.4c-1.927.2-3.279.033-4.057-.529a3.534,3.534,0,0,1-1.183-3.041V110.4h-1.893V107.76h1.893v-2.148l2.772-.826v2.974h2.434v2.611Z" transform="translate(-236.123 -72.221)" fill="#2b368c"/>
    <path id="Path_10" data-name="Path 10" d="M372.97,117.736h5.5a2.622,2.622,0,0,0-.978-1.64,2.736,2.736,0,0,0-1.686-.536,3.053,3.053,0,0,0-1.855.569,2.8,2.8,0,0,0-.978,1.607m.067,2.142a2.777,2.777,0,0,0,3.035,2.042,2.924,2.924,0,0,0,2.428-1.071l2.225,1.306a5.356,5.356,0,0,1-4.687,2.309,5.8,5.8,0,0,1-4.282-1.606,5.528,5.528,0,0,1-1.619-4.084,5.691,5.691,0,0,1,1.585-4.084,5.562,5.562,0,0,1,4.08-1.64,5.066,5.066,0,0,1,3.912,1.64,5.786,5.786,0,0,1,1.551,4.05,6.779,6.779,0,0,1-.1,1.138Z" transform="translate(-255.108 -77.917)" fill="#2b368c"/>
    <path id="Path_11" data-name="Path 11" d="M415.118,115.984a2.763,2.763,0,0,1,1.272-1.521,3.978,3.978,0,0,1,1.975-.5v3.074a3.244,3.244,0,0,0-2.243.5,2.391,2.391,0,0,0-1,2.182v5.091h-2.745V114.132h2.745Z" transform="translate(-284.218 -78.549)" fill="#2b368c"/>
    <path id="Path_12" data-name="Path 12" d="M439.817,120.921a2.837,2.837,0,0,0,2.1.837,3.054,3.054,0,0,0,2.136-.837,3.259,3.259,0,0,0,0-4.355,3.1,3.1,0,0,0-4.239,0,2.961,2.961,0,0,0-.834,2.177,2.909,2.909,0,0,0,.834,2.178m2.637-7.872a4.766,4.766,0,0,1,3.671,1.642,5.826,5.826,0,0,1,1.535,4.053,5.68,5.68,0,0,1-1.535,4.053,4.767,4.767,0,0,1-3.671,1.641,4.188,4.188,0,0,1-3.471-1.574v5.594h-2.737V113.317h2.737v1.273a4.122,4.122,0,0,1,3.471-1.541" transform="translate(-300.672 -77.916)" fill="#2b368c"/>
    <rect id="Rectangle_7" data-name="Rectangle 7" width="2.854" height="15.694" transform="translate(148.985 30.567)" fill="#2b368c"/>
    <path id="Path_13" data-name="Path 13" d="M498.579,120.905a2.832,2.832,0,0,0,2.1.839,3.049,3.049,0,0,0,2.136-.839,2.969,2.969,0,0,0,.834-2.182,2.917,2.917,0,0,0-.834-2.182,3.095,3.095,0,0,0-4.238,0,2.969,2.969,0,0,0-.834,2.182,3.2,3.2,0,0,0,.834,2.182m5.106-7.587h2.737v10.843h-2.737v-1.275a4.186,4.186,0,0,1-3.471,1.578,4.812,4.812,0,0,1-3.671-1.645,5.846,5.846,0,0,1-1.535-4.062,5.7,5.7,0,0,1,1.535-4.062,4.761,4.761,0,0,1,3.671-1.645,4.185,4.185,0,0,1,3.471,1.578Z" transform="translate(-341.172 -77.917)" fill="#2b368c"/>
    <path id="Path_14" data-name="Path 14" d="M543.847,124.463a5.43,5.43,0,0,1-4.061-1.645,5.891,5.891,0,0,1,0-8.124,5.431,5.431,0,0,1,4.061-1.645,5.673,5.673,0,0,1,2.876.772,4.786,4.786,0,0,1,1.963,2.048l-2.4,1.41a2.5,2.5,0,0,0-.981-1.074,2.83,2.83,0,0,0-1.489-.4,2.692,2.692,0,0,0-2.064.839,3.2,3.2,0,0,0,0,4.264,2.743,2.743,0,0,0,2.064.839,3.056,3.056,0,0,0,1.489-.369,2.426,2.426,0,0,0,.981-1.04l2.436,1.376a5.54,5.54,0,0,1-2,2.048,5.978,5.978,0,0,1-2.876.7" transform="translate(-370.915 -77.916)" fill="#2b368c"/>
    <path id="Path_15" data-name="Path 15" d="M577.755,117.736h5.5a2.622,2.622,0,0,0-.978-1.64,2.736,2.736,0,0,0-1.686-.536,3.054,3.054,0,0,0-1.855.569,2.636,2.636,0,0,0-.978,1.607m.034,2.142a2.777,2.777,0,0,0,3.035,2.042,2.923,2.923,0,0,0,2.428-1.071l2.225,1.306a5.355,5.355,0,0,1-4.687,2.309,5.8,5.8,0,0,1-4.282-1.606,5.528,5.528,0,0,1-1.619-4.084,5.691,5.691,0,0,1,1.585-4.084,5.561,5.561,0,0,1,4.081-1.64,5.066,5.066,0,0,1,3.912,1.64,5.786,5.786,0,0,1,1.551,4.05,6.789,6.789,0,0,1-.1,1.138Z" transform="translate(-396.228 -77.917)" fill="#2b368c"/>
    <path id="Path_16" data-name="Path 16" d="M77.829,85.214c-1.676.866-2.883-.533-2.916-2.13-.1-3.1,2.28-5.66,4.76-7.258.4,2.064.972,7.99-1.844,9.388m25.443-5.726c-2.715-5.992-10.928-11.718-21.119-8.023-2.146-6.126-7.676-9.888-12.94-4.461-1.676,1.731-5.4,9.588-.9,19.708a22.243,22.243,0,0,0,9.185,10.021,24.788,24.788,0,0,1-8.447-14.382c-1.14-5.26.57-13.45,4.693-14.515,1.877-.466,4.19,1.964,5.2,5.06-4.09,2.2-6.671,5.426-7.073,9.688-.637,6.558,8.314,9.588,11.129.632a18.223,18.223,0,0,0,.033-9.022,13.174,13.174,0,0,1,14.08,3.2c6.3,6.725,3.788,13.949.536,18.11a17.062,17.062,0,0,1-14.616,6.459c-10.123-.765-17.2-10.686-18.638-16.779.972,7.957,10.861,22.538,26.181,18.443,9.822-2.63,17.2-14.215,12.7-24.136" transform="translate(-44.377 -44.377)" fill="#2b368c"/>
  </g>
</svg>
